<svg aria-hidden="true" style="position: absolute; width: 0; height: 0; overflow: hidden;" version="1.1" xmlns="http://www.w3.org/2000/svg" xmlns:xlink="http://www.w3.org/1999/xlink">
<defs>
<symbol id="leftArrow" viewBox="0 0 24 24">
<path d="M19 12a1 1 0 0 1-1 1H8.414l1.293 1.293a1 1 0 0 1-1.414 1.414l-3-3a1 1 0 0 1 0-1.414l3-3a1 1 0 0 1 1.414 1.414L8.414 11H18a1 1 0 0 1 1 1z"/>
</symbol>
<symbol id="rightArrow" viewBox="0 0 24 24">
<path d="m18.707 12.707-3 3a1 1 0 0 1-1.414-1.414L15.586 13H6a1 1 0 0 1 0-2h9.586l-1.293-1.293a1 1 0 0 1 1.414-1.414l3 3a1 1 0 0 1 0 1.414z"/>
</symbol>
<symbol id="plus" viewBox="0 0 128 128">
<path d="M128 63.954c0 2.006-.797 3.821-2.136 5.127-1.308 1.337-3.125 2.133-5.166 2.133H71.302v49.356c0 4.012-3.284 7.292-7.302 7.292-2.009 0-3.827-.828-5.166-2.134-1.308-1.337-2.136-3.152-2.136-5.159V71.214H7.302c-4.05 0-7.302-3.248-7.302-7.26 0-2.006.797-3.853 2.136-5.159a7.279 7.279 0 0 1 5.166-2.134h49.395V7.306c0-4.012 3.284-7.26 7.302-7.26 2.009 0 3.827.828 5.166 2.133a7.238 7.238 0 0 1 2.136 5.127v49.356h49.395A7.276 7.276 0 0 1 128 63.954z"/>
</symbol>
</defs>
</svg>