<svg aria-hidden="true" style="position: absolute; width: 0; height: 0; overflow: hidden;" version="1.1" xmlns="http://www.w3.org/2000/svg" xmlns:xlink="http://www.w3.org/1999/xlink">
<defs>
<symbol id="leftArrow" viewBox="0 0 24 24">
<path d="M19 12a1 1 0 0 1-1 1H8.414l1.293 1.293a1 1 0 0 1-1.414 1.414l-3-3a1 1 0 0 1 0-1.414l3-3a1 1 0 0 1 1.414 1.414L8.414 11H18a1 1 0 0 1 1 1z"/>
</symbol>
<symbol id="rightArrow" viewBox="0 0 24 24">
<path d="m18.707 12.707-3 3a1 1 0 0 1-1.414-1.414L15.586 13H6a1 1 0 0 1 0-2h9.586l-1.293-1.293a1 1 0 0 1 1.414-1.414l3 3a1 1 0 0 1 0 1.414z"/>
</symbol>
</defs>
</svg>