<svg aria-hidden="true" style="position: absolute; width: 0; height: 0; overflow: hidden;" version="1.1" xmlns="http://www.w3.org/2000/svg" xmlns:xlink="http://www.w3.org/1999/xlink">
<defs>
<symbol id="leftArrow" viewBox="0 0 24 24">
<path d="M19 12a1 1 0 0 1-1 1H8.414l1.293 1.293a1 1 0 0 1-1.414 1.414l-3-3a1 1 0 0 1 0-1.414l3-3a1 1 0 0 1 1.414 1.414L8.414 11H18a1 1 0 0 1 1 1z"/>
</symbol>
<symbol id="rightArrow" viewBox="0 0 24 24">
<path d="m18.707 12.707-3 3a1 1 0 0 1-1.414-1.414L15.586 13H6a1 1 0 0 1 0-2h9.586l-1.293-1.293a1 1 0 0 1 1.414-1.414l3 3a1 1 0 0 1 0 1.414z"/>
</symbol>
<symbol id="plus" viewBox="0 0 128 128">
<path d="M128 63.954c0 2.006-.797 3.821-2.136 5.127-1.308 1.337-3.125 2.133-5.166 2.133H71.302v49.356c0 4.012-3.284 7.292-7.302 7.292-2.009 0-3.827-.828-5.166-2.134-1.308-1.337-2.136-3.152-2.136-5.159V71.214H7.302c-4.05 0-7.302-3.248-7.302-7.26 0-2.006.797-3.853 2.136-5.159a7.279 7.279 0 0 1 5.166-2.134h49.395V7.306c0-4.012 3.284-7.26 7.302-7.26 2.009 0 3.827.828 5.166 2.133a7.238 7.238 0 0 1 2.136 5.127v49.356h49.395A7.276 7.276 0 0 1 128 63.954z"/>
</symbol>
<symbol id="minus" viewBox="0 0 24 24">
<path d="M6,12a1,1,0,0,1,1-1H17a1,1,0,0,1,0,2H7A1,1,0,0,1,6,12Z"/>
</symbol>
<symbol id="wand" viewBox="0 0 24 24">
<path d="M8.99999 1C8.99999 0.447715 8.55228 0 7.99999 0C7.44771 0 6.99999 0.447715 6.99999 1V1.5C6.99999 2.05228 7.44771 2.5 7.99999 2.5C8.55228 2.5 8.99999 2.05228 8.99999 1.5V1ZM3.7071 2.29289C3.31657 1.90237 2.68341 1.90237 2.29288 2.29289C1.90236 2.68342 1.90236 3.31658 2.29288 3.70711L3.29288 4.70711C3.68341 5.09763 4.31657 5.09763 4.7071 4.70711C5.09762 4.31658 5.09762 3.68342 4.7071 3.29289L3.7071 2.29289ZM13.7071 3.70711C14.0976 3.31658 14.0976 2.68342 13.7071 2.29289C13.3166 1.90237 12.6834 1.90237 12.2929 2.29289L11.2929 3.29289C10.9024 3.68342 10.9024 4.31658 11.2929 4.70711C11.6834 5.09763 12.3166 5.09763 12.7071 4.70711L13.7071 3.70711ZM1 7C0.447715 7 0 7.44772 0 8C0 8.55228 0.447715 9 1 9H1.5C2.05228 9 2.5 8.55228 2.5 8C2.5 7.44772 2.05228 7 1.5 7H1ZM15 7C14.4477 7 14 7.44772 14 8C14 8.55228 14.4477 9 15 9H15.5C16.0523 9 16.5 8.55228 16.5 8C16.5 7.44772 16.0523 7 15.5 7H15ZM4.70711 12.7071C5.09763 12.3166 5.09763 11.6834 4.70711 11.2929C4.31658 10.9024 3.68342 10.9024 3.29289 11.2929L2.29289 12.2929C1.90237 12.6834 1.90237 13.3166 2.29289 13.7071C2.68342 14.0976 3.31658 14.0976 3.70711 13.7071L4.70711 12.7071ZM9 15C9 14.4477 8.55228 14 8 14C7.44772 14 7 14.4477 7 15V15.5C7 16.0523 7.44772 16.5 8 16.5C8.55228 16.5 9 16.0523 9 15.5V15ZM9.41421 4.99998C8.63316 4.21894 7.36683 4.21894 6.58579 4.99998L5 6.58577C4.21895 7.36682 4.21895 8.63315 5 9.4142L7.29289 11.7071L18.5858 23C19.3668 23.781 20.6332 23.781 21.4142 23L23 21.4142C23.781 20.6331 23.781 19.3668 23 18.5858L11.7071 7.29288L9.41421 4.99998ZM6.41421 7.99998L8 6.4142L9.58579 7.99998L8 9.58577L6.41421 7.99998ZM9.41421 11L11 9.4142L21.5858 20L20 21.5858L9.41421 11Z"/>
</symbol>
</defs>
</svg>